<svg xmlns="http://www.w3.org/2000/svg" width="338" height="87" viewBox="0 0 338 87">
    <defs>
        <style>
            .cls-1{fill:#fff}
        </style>
    </defs>
    <g id="Vector_Smart_Object" transform="translate(-112.801 -239.689)">
        <g id="Group_13">
            <path id="Path_25" d="M134.438 279.712c-.3-.132-.5-.224-.706-.3-2.575-1.02-5.147-2.047-7.729-3.049a.694.694 0 0 1-.544-.8 10.109 10.109 0 0 0 0-1.422c-.021-.36.116-.508.465-.577.885-.175 1.769-.363 2.637-.6a.908.908 0 0 0 .55-.522 22.678 22.678 0 0 0 .888-8.617.6.6 0 0 0-.591-.623q-7.933-1.422-15.864-2.863c-.24-.043-.478-.1-.74-.15v-2.445c.56-.071 1.12-.172 1.682-.2a.747.747 0 0 0 .746-.575 16.606 16.606 0 0 0 .891-7.853 39.312 39.312 0 0 0-.9-4.15.617.617 0 0 0-.751-.532c-.545.038-1.095.009-1.67.009V242.6c1.166-.118 2.321-.241 3.477-.351q7.567-.723 15.134-1.441c3.921-.374 7.837-.822 11.766-1.092a41.9 41.9 0 0 1 5.1.221q7.5.407 15 .824 8.513.47 17.026.943c4.9.267 9.8.513 14.692.8a26.863 26.863 0 0 1 4.4.444 9.1 9.1 0 0 1 7.036 9.657c-.184 3.453-2.092 5.7-4.922 7.336-.39.226-.8.421-1.345.71.31.03.473.048.636.061 1.307.11 2.616.2 3.92.332a5.568 5.568 0 0 1 4.472 3.275 16 16 0 0 1 .434 14.917 10.487 10.487 0 0 1-3.372 4.512c.882.213 1.634.444 2.4.567.652.1.9.377.825 1.053a8.786 8.786 0 0 0 0 1.73c.043.5-.162.693-.618.785a10.867 10.867 0 0 0-1.659.454 1 1 0 0 0-.543.551 17.917 17.917 0 0 0-.047 10.654.979.979 0 0 0 .691.762c.528.163 1.023.439 1.555.581s.651.448.619.944a12.548 12.548 0 0 0 0 1.669.8.8 0 0 1-.582.917c-4.8 2.03-9.587 4.089-14.378 6.139q-18.732 8.016-37.46 16.04a.781.781 0 0 1-.885-.106q-16.869-12.238-33.746-24.466a13.11 13.11 0 0 1-5.222-9.058 18.19 18.19 0 0 1-.027-6.52 4.494 4.494 0 0 1 2.39-3.12 23.578 23.578 0 0 1 7.549-2.324c2.261-.4 4.529-.766 6.793-1.15.137-.02.271-.068.527-.138zm23.21 41.19l48.722-19.211a24.559 24.559 0 0 1-1.364-6.436 17.129 17.129 0 0 1 .9-6.53c-.292.071-.486.112-.675.166l-45.754 13.2c-1.946.562-1.952.564-2.413 2.581a29.374 29.374 0 0 0-.377 9.723c.223 2.146.623 4.272.962 6.505zm12.027-32.977c.212-.034.332-.049.45-.072 11.124-2.211 22.242-4.449 33.377-6.6a4.544 4.544 0 0 0 3.422-2.592 14.272 14.272 0 0 0 1.5-8.393 9.89 9.89 0 0 0-3.256-6.41 3.435 3.435 0 0 0-2.968-.87c-.586.1-1.183.124-1.775.184q-6.431.643-12.862 1.289-7.134.717-14.269 1.437c-1.172.119-2.344.242-3.567.369 3.073 7.26 2.305 14.426-.052 21.658zm-1.047.016c.093-.251.162-.421.221-.6a35.391 35.391 0 0 0 1.882-9.925 24.15 24.15 0 0 0-1.787-10.517 1.094 1.094 0 0 0-.968-.766c-2.293-.332-4.579-.713-6.869-1.065a12.3 12.3 0 0 0-2.735-.346c-3.394.265-6.774.7-10.168.962a28.162 28.162 0 0 1-5.277.022c-2.337-.262-4.642-.816-6.962-1.242l-5.044-.92a23.812 23.812 0 0 1-1.281 10.568zm-52.646-29.729a2.549 2.549 0 0 0 .333.1q3.78.514 7.562 1.022c5.326.723 10.655 1.417 15.974 2.185a10.557 10.557 0 0 0 8.1-1.644c3.316-2.409 4.626-5.767 4.472-9.782a7.928 7.928 0 0 0-3.578-6.57 8.749 8.749 0 0 0-5.535-1.538c-1.721.088-3.439.246-5.157.378q-9.973.765-19.947 1.533c-.731.056-1.461.128-2.224.2a20.576 20.576 0 0 1 .001 14.117zm40.451 44.4c-.135-.08-.237-.145-.344-.2q-15-8.334-30-16.661a6.661 6.661 0 0 0-1.36-.564c-2.559-.745-4.376.517-4.578 3.18a17.258 17.258 0 0 0 .53 5.763 7.522 7.522 0 0 0 3.078 4.536q16.064 10.857 32.094 21.765c.161.109.331.2.559.344-1.172-6.097-1.928-12.104.022-18.163z" class="cls-1"/>
            <g id="Group_12">
                <g id="Group_9">
                    <g id="Group_8">
                        <path id="Path_26" d="M238.643 284.01l-.027-11.524-5.625 9.494H231l-5.6-9.247v11.277h-4.15V264.8h3.659l7.154 11.936 7.044-11.936h3.632l.054 19.208z" class="cls-1"/>
                        <path id="Path_27" d="M261.605 269.248l-6.635 15.668c-1.419 3.567-3.44 4.638-6.089 4.638a6.5 6.5 0 0 1-4.1-1.345l1.556-3.045a3.769 3.769 0 0 0 2.4.933c1.174 0 1.83-.521 2.4-1.839l.055-.137-6.362-14.872h4.4l4.123 10.015 4.15-10.015z" class="cls-1"/>
                        <path id="Path_28" d="M279.352 276.629c0 4.638-3.195 7.6-7.317 7.6a5.688 5.688 0 0 1-4.423-1.784v6.887h-4.26v-20.084h4.068v1.7a5.7 5.7 0 0 1 4.615-1.921c4.123.001 7.317 2.965 7.317 7.602zm-4.314 0c0-2.551-1.611-4.088-3.741-4.088s-3.741 1.537-3.741 4.088 1.611 4.089 3.741 4.089 3.741-1.537 3.741-4.089z" class="cls-1"/>
                        <path id="Path_29" d="M294.943 275.587v8.423h-3.986v-1.838c-.792 1.345-2.321 2.058-4.478 2.058-3.44 0-5.488-1.921-5.488-4.473 0-2.607 1.829-4.418 6.307-4.418h3.386c0-1.838-1.092-2.908-3.386-2.908a7.038 7.038 0 0 0-4.232 1.372l-1.529-2.991a11.254 11.254 0 0 1 6.335-1.784c4.477 0 7.071 2.086 7.071 6.559zm-4.259 3.759v-1.509h-2.922c-1.993 0-2.621.741-2.621 1.728 0 1.07.9 1.784 2.4 1.784a3.138 3.138 0 0 0 3.142-2.003z" class="cls-1"/>
                        <path id="Path_30" d="M314.793 276.629c0 4.638-3.194 7.6-7.317 7.6a5.689 5.689 0 0 1-4.423-1.784v6.887h-4.259v-20.084h4.068v1.7a5.694 5.694 0 0 1 4.614-1.921c4.124.001 7.317 2.965 7.317 7.602zm-4.314 0c0-2.551-1.611-4.088-3.741-4.088S303 274.077 303 276.629s1.611 4.089 3.741 4.089 3.738-1.537 3.738-4.089z" class="cls-1"/>
                        <path id="Path_31" d="M331.94 277.837h-11.114c.41 1.839 1.966 2.963 4.2 2.963a4.965 4.965 0 0 0 3.686-1.426l2.266 2.469a7.676 7.676 0 0 1-6.062 2.387c-5.079 0-8.382-3.211-8.382-7.6a7.5 7.5 0 0 1 7.836-7.6 7.29 7.29 0 0 1 7.646 7.656c.005.328-.05.793-.076 1.151zm-11.168-2.5h7.236a3.666 3.666 0 0 0-7.236 0z" class="cls-1"/>
                        <path id="Path_32" d="M343.98 269.028v3.952c-.355-.028-.628-.055-.956-.055-2.348 0-3.9 1.29-3.9 4.116v6.97h-4.264v-14.763h4.068v1.952a5.915 5.915 0 0 1 5.052-2.172z" class="cls-1"/>
                        <path id="Path_33" d="M361.536 275.559v8.451h-4.26v-7.792c0-2.387-1.092-3.485-2.976-3.485-2.048 0-3.522 1.262-3.522 3.978v7.3h-4.259V263.65h4.259v7.134a6.438 6.438 0 0 1 4.669-1.756c3.468 0 6.089 2.031 6.089 6.531z" class="cls-1"/>
                        <path id="Path_34" d="M379.858 277.837h-11.114c.41 1.839 1.966 2.963 4.205 2.963a4.964 4.964 0 0 0 3.686-1.426l2.266 2.469a7.674 7.674 0 0 1-6.061 2.387c-5.079 0-8.383-3.211-8.383-7.6a7.5 7.5 0 0 1 7.837-7.6 7.29 7.29 0 0 1 7.645 7.656c0 .328-.054.793-.081 1.151zm-11.168-2.5h7.236a3.666 3.666 0 0 0-7.236 0z" class="cls-1"/>
                        <path id="Path_35" d="M382.778 263.65h4.259v20.36h-4.259z" class="cls-1"/>
                        <path id="Path_36" d="M407 276.629c0 4.638-3.194 7.6-7.318 7.6a5.688 5.688 0 0 1-4.423-1.784v6.887H391v-20.084h4.068v1.7a5.7 5.7 0 0 1 4.614-1.921c4.118.001 7.318 2.965 7.318 7.602zm-4.314 0c0-2.551-1.611-4.088-3.741-4.088s-3.741 1.537-3.741 4.088 1.611 4.089 3.741 4.089 3.738-1.537 3.738-4.089z" class="cls-1"/>
                        <path id="Path_37" d="M424.144 277.837H413.03c.41 1.839 1.966 2.963 4.205 2.963a4.964 4.964 0 0 0 3.686-1.426l2.266 2.469a7.674 7.674 0 0 1-6.061 2.387c-5.079 0-8.383-3.211-8.383-7.6a7.5 7.5 0 0 1 7.837-7.6 7.29 7.29 0 0 1 7.645 7.656c0 .328-.054.793-.081 1.151zm-11.168-2.5h7.235a3.666 3.666 0 0 0-7.235 0z" class="cls-1"/>
                        <path id="Path_38" d="M436.184 269.028v3.952c-.355-.028-.628-.055-.956-.055-2.348 0-3.9 1.29-3.9 4.116v6.97h-4.259v-14.763h4.068v1.952a5.915 5.915 0 0 1 5.047-2.172z" class="cls-1"/>
                        <path id="Path_39" d="M437.358 282.638l1.42-3.073a10.012 10.012 0 0 0 5.106 1.427c1.966 0 2.7-.522 2.7-1.345 0-2.414-8.874.055-8.874-5.844 0-2.8 2.512-4.775 6.8-4.775a12.03 12.03 0 0 1 5.652 1.29l-1.419 3.046a8.4 8.4 0 0 0-4.233-1.1c-1.911 0-2.73.6-2.73 1.371 0 2.525 8.874.082 8.874 5.9 0 2.744-2.539 4.692-6.935 4.692a12.56 12.56 0 0 1-6.361-1.589z" class="cls-1"/>
                    </g>
                </g>
                <g id="Group_11">
                    <g id="Group_10">
                        <path id="Path_40" d="M405.348 300.753a1.942 1.942 0 1 1 3.884 0 1.942 1.942 0 1 1-3.884 0z" class="cls-1"/>
                        <path id="Path_41" d="M424.579 295.279v7.283h-2.96v-6.9c0-2.261-1.113-3.355-3.007-3.355-2.108 0-3.529 1.285-3.529 3.831v6.426h-2.96v-12.711h2.818v1.642a5.487 5.487 0 0 1 4.358-1.785c3.031 0 5.28 1.737 5.28 5.569z" class="cls-1"/>
                        <path id="Path_42" d="M440.306 297.159h-9.924a3.832 3.832 0 0 0 4.1 3.046 4.521 4.521 0 0 0 3.434-1.381l1.587 1.833a6.394 6.394 0 0 1-5.092 2.07c-4.24 0-6.987-2.737-6.987-6.521a6.3 6.3 0 0 1 6.537-6.5 6.183 6.183 0 0 1 6.395 6.568c-.002.243-.026.6-.05.885zm-9.947-1.975h7.176a3.448 3.448 0 0 0-3.576-3.094 3.5 3.5 0 0 0-3.6 3.094z" class="cls-1"/>
                        <path id="Path_43" d="M450.8 301.871a4.634 4.634 0 0 1-2.843.857c-2.771 0-4.357-1.476-4.357-4.283v-6.117h-2.084v-2.38h2.084v-2.9h2.96v2.9h3.387v2.38h-3.387v6.045c0 1.237.616 1.9 1.753 1.9a2.652 2.652 0 0 0 1.657-.523z" class="cls-1"/>
                    </g>
                </g>
            </g>
        </g>
    </g>
</svg>
