<svg xmlns="http://www.w3.org/2000/svg" width="287" height="180" viewBox="0 0 287 180">
    <defs>
        <style>
            .cls-1{fill:#fff}
        </style>
    </defs>
    <g id="Vector_Smart_Object" transform="translate(-208.827 -263.124)">
        <g id="Group_6">
            <path id="Path_1" d="M312.4 320.883c-.441-.19-.728-.323-1.021-.439-3.726-1.473-7.448-2.954-11.184-4.4a1 1 0 0 1-.788-1.161 14.455 14.455 0 0 0 0-2.052c-.03-.52.168-.734.673-.833 1.28-.252 2.56-.524 3.816-.872a1.316 1.316 0 0 0 .8-.753 32.644 32.644 0 0 0 1.285-12.436.87.87 0 0 0-.855-.9q-11.48-2.052-22.955-4.131c-.347-.063-.692-.14-1.071-.217v-3.529c.811-.1 1.62-.249 2.434-.294a1.081 1.081 0 0 0 1.079-.829A23.9 23.9 0 0 0 285.9 276.7a56.816 56.816 0 0 0-1.3-5.989.892.892 0 0 0-1.086-.768c-.789.054-1.585.013-2.417.013v-2.626c1.687-.17 3.358-.347 5.031-.507q10.949-1.045 21.9-2.08c5.674-.539 11.34-1.186 17.025-1.575a60.73 60.73 0 0 1 7.379.319q10.852.588 21.7 1.189 12.319.679 24.637 1.361c7.086.386 14.174.74 21.259 1.152a39.036 39.036 0 0 1 6.365.642c6.468 1.471 10.539 7.209 10.181 13.936-.266 4.984-3.027 8.224-7.122 10.587-.564.326-1.152.608-1.946 1.025.448.043.684.069.92.088 1.891.158 3.785.283 5.672.479 3.058.318 5.076 2.1 6.472 4.727a23.031 23.031 0 0 1 .628 21.527 15.132 15.132 0 0 1-4.88 6.512c1.277.309 2.365.641 3.478.819.943.15 1.306.545 1.193 1.519a12.564 12.564 0 0 0 0 2.5c.061.721-.236 1-.895 1.133a15.585 15.585 0 0 0-2.4.655 1.441 1.441 0 0 0-.786.795 25.79 25.79 0 0 0-.069 15.375 1.416 1.416 0 0 0 1 1.1c.763.235 1.48.633 2.249.838s.941.647.9 1.363a18.1 18.1 0 0 0 0 2.409 1.148 1.148 0 0 1-.842 1.324c-6.945 2.93-13.873 5.9-20.806 8.86q-27.1 11.569-54.2 23.149a1.133 1.133 0 0 1-1.281-.153q-24.409-17.662-48.831-35.308c-4.452-3.221-6.733-7.75-7.556-13.073a26.182 26.182 0 0 1-.039-9.41 6.488 6.488 0 0 1 3.459-4.5 34.163 34.163 0 0 1 10.923-3.354c3.271-.58 6.553-1.106 9.829-1.66.194-.04.388-.11.756-.21zm33.586 59.444l70.5-27.725a35.374 35.374 0 0 1-1.974-9.289 24.656 24.656 0 0 1 1.3-9.424c-.423.1-.7.161-.977.24l-66.206 19.052c-2.816.81-2.824.814-3.492 3.725a42.28 42.28 0 0 0-.546 14.031c.328 3.096.909 6.163 1.397 9.391zm17.4-47.592c.307-.049.481-.071.651-.1 16.1-3.191 32.185-6.42 48.3-9.53a6.573 6.573 0 0 0 4.952-3.74 20.553 20.553 0 0 0 2.174-12.113 14.261 14.261 0 0 0-4.711-9.252 4.981 4.981 0 0 0-4.294-1.256c-.848.142-1.712.18-2.569.266l-18.611 1.859q-10.324 1.035-20.648 2.075c-1.7.171-3.391.349-5.162.532 4.441 10.481 3.332 20.824-.078 31.26zm-1.515.024c.136-.362.236-.608.32-.859a50.935 50.935 0 0 0 2.723-14.324 34.758 34.758 0 0 0-2.585-15.178 1.583 1.583 0 0 0-1.4-1.105c-3.318-.479-6.626-1.029-9.94-1.537a17.848 17.848 0 0 0-3.958-.5c-4.91.382-9.8 1.008-14.713 1.388a40.758 40.758 0 0 1-7.636.031c-3.382-.379-6.717-1.178-10.073-1.792-2.381-.436-4.764-.867-7.3-1.328.726 5.3-.277 10.282-1.853 15.251zm-76.178-42.9a3.784 3.784 0 0 0 .482.141q5.47.741 10.942 1.474c7.706 1.043 15.418 2.044 23.115 3.153 4.219.608 8.182.191 11.72-2.372 4.8-3.477 6.694-8.322 6.472-14.117a11.437 11.437 0 0 0-5.179-9.482 12.69 12.69 0 0 0-8.01-2.219c-2.49.128-4.975.355-7.461.545q-14.433 1.1-28.864 2.212c-1.058.082-2.114.186-3.218.283a29.625 29.625 0 0 1 .008 20.379zm58.537 64.071c-.2-.115-.344-.208-.5-.294q-21.7-12.027-43.41-24.044a9.653 9.653 0 0 0-1.968-.814c-3.7-1.075-6.331.746-6.624 4.59a24.837 24.837 0 0 0 .767 8.317 10.853 10.853 0 0 0 4.453 6.547q23.246 15.669 46.441 31.41c.233.158.48.295.81.5-1.699-8.798-2.79-17.467.031-26.212z" class="cls-1"/>
            <g id="Group_5">
                <g id="Group_2">
                    <g id="Group_1">
                        <path id="Path_2" d="M230.572 419.783l-.034-14.371-7.032 11.838h-2.492l-7-11.53v14.063h-5.189v-23.951h4.575l8.945 14.884 8.808-14.884h4.54l.068 23.951z" class="cls-1"/>
                        <path id="Path_3" d="M259.282 401.375l-8.3 19.537c-1.775 4.448-4.3 5.783-7.613 5.783a8.142 8.142 0 0 1-5.12-1.677l1.946-3.8a4.718 4.718 0 0 0 3 1.163c1.468 0 2.287-.65 3-2.293l.069-.171-7.954-18.545h5.5l5.155 12.489 5.189-12.489z" class="cls-1"/>
                        <path id="Path_4" d="M281.47 410.579c0 5.783-3.994 9.478-9.149 9.478a7.123 7.123 0 0 1-5.53-2.224v8.588h-5.325v-25.046h5.087v2.125a7.129 7.129 0 0 1 5.769-2.4c5.154 0 9.148 3.7 9.148 9.479zm-5.394 0c0-3.181-2.014-5.1-4.677-5.1s-4.677 1.917-4.677 5.1 2.015 5.1 4.677 5.1 4.678-1.918 4.678-5.1z" class="cls-1"/>
                        <path id="Path_5" d="M300.963 409.279v10.5h-4.984v-2.293c-.99 1.677-2.9 2.566-5.6 2.566-4.3 0-6.861-2.4-6.861-5.577 0-3.251 2.287-5.509 7.885-5.509h4.234c0-2.292-1.366-3.627-4.234-3.627a8.819 8.819 0 0 0-5.291 1.711l-1.912-3.729a14.093 14.093 0 0 1 7.92-2.225c5.599.004 8.843 2.604 8.843 8.183zm-5.325 4.687v-1.882h-3.653c-2.492 0-3.277.924-3.277 2.155 0 1.335 1.126 2.224 3 2.224a3.924 3.924 0 0 0 3.929-2.496z" class="cls-1"/>
                        <path id="Path_6" d="M325.78 410.579c0 5.783-3.994 9.478-9.149 9.478a7.123 7.123 0 0 1-5.53-2.224v8.588h-5.325v-25.046h5.087v2.125a7.128 7.128 0 0 1 5.769-2.4c5.154 0 9.148 3.7 9.148 9.479zm-5.394 0c0-3.181-2.014-5.1-4.677-5.1s-4.677 1.917-4.677 5.1 2.014 5.1 4.677 5.1 4.677-1.918 4.677-5.1z" class="cls-1"/>
                        <path id="Path_7" d="M347.218 412.085h-13.894c.512 2.293 2.458 3.695 5.257 3.695a6.216 6.216 0 0 0 4.609-1.78l2.833 3.079c-1.707 1.95-4.267 2.977-7.578 2.977-6.35 0-10.48-4-10.48-9.478 0-5.508 4.2-9.477 9.8-9.477 5.394 0 9.559 3.627 9.559 9.547-.004.411-.072.991-.106 1.437zm-13.963-3.114h9.045a4.586 4.586 0 0 0-9.046 0z" class="cls-1"/>
                        <path id="Path_8" d="M362.273 401.1v4.927c-.444-.034-.786-.069-1.2-.069-2.935 0-4.882 1.609-4.882 5.132v8.691h-5.321v-18.406h5.087v2.425c1.297-1.775 3.482-2.7 6.316-2.7z" class="cls-1"/>
                        <path id="Path_9" d="M384.223 409.245v10.539H378.9v-9.717c0-2.977-1.366-4.345-3.721-4.345-2.56 0-4.4 1.574-4.4 4.961v9.1h-5.325V394.4h5.325v8.9a8.064 8.064 0 0 1 5.838-2.19c4.328-.01 7.606 2.523 7.606 8.135z" class="cls-1"/>
                        <path id="Path_10" d="M407.129 412.085h-13.895c.512 2.293 2.458 3.695 5.257 3.695A6.216 6.216 0 0 0 403.1 414l2.834 3.079c-1.707 1.95-4.267 2.977-7.579 2.977-6.35 0-10.48-4-10.48-9.478 0-5.508 4.2-9.477 9.8-9.477 5.394 0 9.559 3.627 9.559 9.547-.003.411-.072.991-.105 1.437zm-13.963-3.114h9.046a4.586 4.586 0 0 0-9.046 0z" class="cls-1"/>
                        <path id="Path_11" d="M410.78 394.4h5.325v25.388h-5.325z" class="cls-1"/>
                        <path id="Path_12" d="M441.061 410.579c0 5.783-3.994 9.478-9.149 9.478a7.123 7.123 0 0 1-5.53-2.224v8.588h-5.325v-25.046h5.087v2.125a7.128 7.128 0 0 1 5.769-2.4c5.153 0 9.148 3.7 9.148 9.479zm-5.394 0c0-3.181-2.014-5.1-4.677-5.1s-4.677 1.917-4.677 5.1 2.014 5.1 4.677 5.1 4.677-1.918 4.677-5.1z" class="cls-1"/>
                        <path id="Path_13" d="M462.5 412.085h-13.9c.512 2.293 2.458 3.695 5.258 3.695a6.215 6.215 0 0 0 4.612-1.78l2.834 3.079c-1.707 1.95-4.267 2.977-7.578 2.977-6.35 0-10.481-4-10.481-9.478 0-5.508 4.2-9.477 9.8-9.477 5.394 0 9.559 3.627 9.559 9.547-.004.411-.072.991-.104 1.437zm-13.963-3.114h9.046a4.586 4.586 0 0 0-9.046 0z" class="cls-1"/>
                        <path id="Path_14" d="M477.553 401.1v4.927c-.444-.034-.786-.069-1.2-.069-2.935 0-4.881 1.609-4.881 5.132v8.691h-5.325v-18.406h5.086v2.425c1.302-1.775 3.486-2.7 6.32-2.7z" class="cls-1"/>
                        <path id="Path_15" d="M479.02 418.072l1.775-3.832a12.544 12.544 0 0 0 6.384 1.779c2.458 0 3.38-.65 3.38-1.677 0-3.011-11.1.069-11.1-7.287 0-3.49 3.14-5.954 8.5-5.954a15.073 15.073 0 0 1 7.067 1.609l-1.775 3.8a10.523 10.523 0 0 0-5.292-1.369c-2.389 0-3.414.752-3.414 1.71 0 3.149 11.1.1 11.1 7.357 0 3.422-3.175 5.851-8.671 5.851a15.735 15.735 0 0 1-7.954-1.987z" class="cls-1"/>
                    </g>
                </g>
                <g id="Group_4">
                    <g id="Group_3">
                        <path id="Path_16" d="M439 440.661a2.428 2.428 0 1 1 4.856 0 2.428 2.428 0 1 1-4.856 0z" class="cls-1"/>
                        <path id="Path_17" d="M463.043 433.834v9.082h-3.7v-8.607c0-2.819-1.392-4.184-3.761-4.184-2.635 0-4.412 1.6-4.412 4.778v8.013h-3.7v-15.848h3.523v2.047a6.87 6.87 0 0 1 5.449-2.225c3.788 0 6.601 2.167 6.601 6.944z" class="cls-1"/>
                        <path id="Path_18" d="M482.706 436.179H470.3c.444 2.314 2.369 3.8 5.123 3.8a5.66 5.66 0 0 0 4.293-1.722l1.984 2.286a8.005 8.005 0 0 1-6.367 2.582c-5.3 0-8.735-3.413-8.735-8.132a7.872 7.872 0 0 1 8.173-8.1c4.619 0 8 3.235 8 8.191-.005.294-.035.739-.065 1.095zm-12.436-2.463h8.972a4.308 4.308 0 0 0-4.471-3.858 4.373 4.373 0 0 0-4.501 3.858z" class="cls-1"/>
                        <path id="Path_19" d="M495.827 442.055a5.805 5.805 0 0 1-3.554 1.069c-3.464 0-5.448-1.84-5.448-5.341v-7.627h-2.605v-2.968h2.605v-3.621h3.7v3.621h4.235v2.968h-4.235v7.538c0 1.543.771 2.374 2.192 2.374a3.321 3.321 0 0 0 2.072-.653z" class="cls-1"/>
                    </g>
                </g>
            </g>
        </g>
    </g>
</svg>
